 <svg
      xmlns="http://www.w3.org/2000/svg"
      xmlnsSvgjs="http://svgjs.dev/svgjs"
      xmlnsXlink="http://www.w3.org/1999/xlink"
      width="1000"
      height="1000"
      viewBox="0 0 1000 1000"
    >
      <path d="M0 0H1000V1000H0z"></path>
      <svg
        xmlns="http://www.w3.org/2000/svg"
        xmlnsXlink="http://www.w3.org/1999/xlink"
        width="1000"
        height="623"
        data-background-color="#ffffff"
        transform="matrix(.7 0 0 .7 149.576 282.127)"
        viewBox="0 0 396 247"
      >
        <svg
          width="395.52"
          height="247.2"
          transform="translate(.24 -.1)"
          viewBox="0 0 395.52 247.2"
        >
          <svg></svg>
          <svg width="395.52" height="247.2" viewBox="0 0 395.52 247.2">
            <svg
              width="244.431"
              height="79.876"
              transform="translate(75.544 83.662)"
              viewBox="0 0 244.431 79.876"
            >
              <svg width="244.431" height="79.876" viewBox="0 0 244.431 79.876">
                <svg
                  width="244.431"
                  height="79.876"
                  viewBox="0 0 344.352 112.528"
                >
                  <svg
                    width="244.431"
                    height="81.424"
                    transform="translate(99.92 15.552)"
                    viewBox="0 0 244.431 81.424"
                  >
                    <g>
                      <svg
                        width="244.431"
                        height="81.424"
                        viewBox="0 0 244.431 81.424"
                      >
                        <svg
                          width="244.431"
                          height="53.736"
                          viewBox="0 0 244.431 53.736"
                        >
                          <svg
                            width="244.431"
                            height="53.736"
                            data-palette-color="#111111"
                            viewBox="1.8 -38.15 226.28 49.75"
                          >
                            <path
                              fill="#fff"
                              d="M12.05.35q-3.2 0-5.5-.98-2.3-.97-3.52-2.25Q1.8-4.15 1.8-5.05q0-.4.22-.85.23-.45.58-.73.35-.27.7-.27.5 0 1.03.62.52.63 1.4 1.45.87.83 2.32 1.45 1.45.63 3.8.63 2.35 0 4.03-.78 1.67-.77 2.55-2.3.87-1.52.87-3.82 0-2.4-.9-3.88-.9-1.47-2.37-2.4-1.48-.92-3.23-1.6-1.75-.67-3.52-1.35-1.78-.67-3.25-1.7-1.48-1.02-2.4-2.7-.93-1.67-.93-4.27 0-2.75 1-4.5t2.58-2.75q1.57-1 3.42-1.43 1.85-.42 3.6-.42 1.4 0 2.88.22 1.47.23 2.72.63 1.25.4 2.03.95.77.55.77 1.25 0 .35-.17.77-.18.43-.48.75-.3.33-.8.33-.45 0-1.25-.48-.8-.47-2.18-.95-1.37-.47-3.57-.47-1.8 0-3.47.52-1.68.53-2.73 1.78T6-27.85q0 2 .93 3.22.92 1.23 2.4 1.98 1.47.75 3.22 1.37 1.75.63 3.52 1.4 1.78.78 3.26 1.95 1.47 1.18 2.37 3.08.9 1.9.9 4.9 0 3.55-1.35 5.82-1.35 2.28-3.72 3.38-2.38 1.1-5.48 1.1zM29.45 0q-.65 0-1.13-.4-.47-.4-.47-.9v-35.65q0-.55.47-.88.48-.32 1.13-.32.7 0 1.17.32.48.33.48.88v16.8q.85-1.45 2.5-2.63 1.65-1.17 4.1-1.17 2.4 0 4.42 1.27 2.03 1.28 3.23 3.38 1.2 2.1 1.2 4.7v13.3q0 .65-.5.97-.5.33-1.15.33-.55 0-1.08-.33-.52-.32-.52-.97v-13.3q0-1.6-.85-3.05-.85-1.45-2.25-2.38-1.4-.92-3.1-.92-1.5 0-2.88.77-1.37.78-2.25 2.18-.87 1.4-.87 3.4v13.3q0 .5-.48.9-.47.4-1.17.4zm31.7.35q-2.55 0-4.7-1.33-2.15-1.32-3.48-3.5-1.32-2.17-1.32-4.67v-5.45q0-2.5 1.3-4.63 1.3-2.12 3.45-3.42 2.15-1.3 4.75-1.3 2.55 0 4.72 1.27 2.18 1.28 3.48 3.38 1.3 2.1 1.3 4.7v5.45q0 2.45-1.3 4.65T65.87-.98Q63.7.35 61.15.35zm0-3q1.75 0 3.15-.93Q65.7-4.5 66.55-6q.85-1.5.85-3.15v-5.45q0-1.6-.83-3.05-.82-1.45-2.25-2.38-1.42-.92-3.17-.92t-3.15.92q-1.4.93-2.25 2.38-.85 1.45-.85 3.05v5.45q0 1.65.85 3.15t2.27 2.42q1.43.93 3.13.93zM77.64 11.6q-.65 0-1.12-.4-.48-.4-.48-.9v-32.75q0-.55.48-.88.47-.32 1.12-.32.65 0 1.1.32.45.33.45.88v2.3q.85-1.45 2.55-2.63 1.7-1.17 4.15-1.17 2.5 0 4.53 1.27 2.02 1.28 3.25 3.38 1.22 2.1 1.22 4.7v5.45q0 2.45-1.22 4.65-1.23 2.2-3.23 3.52-2 1.33-4.4 1.33-2.3 0-4.1-1.15-1.8-1.15-2.65-2.7v13.8q0 .5-.47.9-.48.4-1.18.4zm7.8-14.25q1.65 0 3.05-.93 1.4-.92 2.28-2.42.87-1.5.87-3.15v-5.45q0-1.6-.85-3.05-.85-1.45-2.27-2.38-1.43-.92-3.18-.92-1.5 0-2.87.77-1.38.78-2.28 2.18-.9 1.4-.9 3.4v7q0 .75.8 1.92.8 1.18 2.2 2.1 1.4.93 3.15.93zM99.99 0q-.4 0-.85-.18-.45-.17-.75-.5-.3-.32-.3-.72 0-.2.05-.35l10.45-33.95q.2-.6.75-.88.55-.27 1.2-.27.7 0 1.28.3.57.3.72.85l10.4 33.95q.05.15.05.3 0 .4-.3.72-.3.33-.75.53t-.95.2q-.4 0-.75-.2t-.45-.65l-2.35-7.7h-13.8l-2.3 7.7q-.15.45-.5.65t-.85.2zm10.55-31.55l-6.1 20.15h12.15l-6.05-20.15zM129.14 0q-.65 0-1.13-.4-.47-.4-.47-.9v-35.65q0-.55.47-.88.48-.32 1.13-.32.7 0 1.17.32.48.33.48.88V-1.3q0 .5-.48.9-.47.4-1.17.4zm9.95 0q-.65 0-1.13-.4-.47-.4-.47-.9v-21.15q0-.55.47-.88.48-.32 1.13-.32.7 0 1.17.32.48.33.48.88V-1.3q0 .5-.48.9-.47.4-1.17.4zm0-30.65q-.9 0-1.55-.63-.65-.62-.65-1.47t.65-1.45q.65-.6 1.55-.6.95 0 1.57.6.63.6.63 1.45t-.63 1.47q-.62.63-1.57.63zM149.08 0q-.65 0-1.15-.33-.5-.32-.5-.97v-34q0-.7.5-.97.5-.28 1.15-.28.6 0 1.05.32.45.33.85.83.4.5.7 1.15l13.5 26.6v-27.7q0-.65.5-.92.5-.28 1.15-.28.6 0 1.13.28.52.27.52.92V-1.3q0 .65-.52.97-.53.33-1.13.33-.7 0-1.25-.6t-.95-1.3l-13.9-27.05V-1.3q0 .65-.52.97-.53.33-1.13.33zm34.7.35q-2.55 0-4.7-1.33-2.15-1.32-3.47-3.5-1.33-2.17-1.33-4.67v-5.45q0-2.5 1.3-4.63 1.3-2.12 3.45-3.42 2.15-1.3 4.75-1.3 2.55 0 4.73 1.27 2.17 1.28 3.47 3.38 1.3 2.1 1.3 4.7v5.45q0 2.45-1.3 4.65t-3.47 3.52Q186.33.35 183.78.35zm0-3q1.75 0 3.15-.93 1.4-.92 2.25-2.42.85-1.5.85-3.15v-5.45q0-1.6-.82-3.05-.83-1.45-2.25-2.38-1.43-.92-3.18-.92-1.75 0-3.15.92-1.4.93-2.25 2.38-.85 1.45-.85 3.05v5.45q0 1.65.85 3.15t2.28 2.42q1.42.93 3.12.93zM205.63.4q-.5 0-.83-.22-.32-.23-.52-.78l-7.8-20.95q-.05-.15-.13-.38-.07-.22-.07-.37 0-.4.3-.73.3-.32.75-.52t.9-.2q.35 0 .7.2t.45.55l6.4 17.8 5.15-16.25q.15-.45.47-.65.33-.2.83-.2.45 0 .8.2.35.2.5.65L218.48-5l6.55-18q.2-.75 1.1-.75.45 0 .9.17.45.18.75.5.3.33.3.78 0 .15-.08.4-.07.25-.12.35L220.08-.4q-.15.45-.53.63-.37.17-.77.17-.5 0-.83-.2-.32-.2-.52-.55l-5.2-16.25-5.15 16q-.15.5-.55.75t-.9.25z"
                              className="undefined-text-0"
                              data-fill-palette-color="primary"
                              opacity="1"
                            ></path>
                          </svg>
                        </svg>
                        <svg
                          width="244.431"
                          height="15.002"
                          transform="translate(0 66.422)"
                          viewBox="0 0 244.431 15.002"
                        >
                          <svg
                            width="244.431"
                            height="15.002"
                            data-palette-color="#111111"
                            viewBox="2.25 -36.35 803.96 49.35"
                          >
                            <path
                              fill="#fff"
                              d="M19.45-34.45q4.1.25 7.1 2.15t4.63 5.12q1.62 3.23 1.62 7.38 0 1.55-.2 2.9-.7 5.15-3.27 9.1-2.58 3.95-6.63 6.12Q18.65.5 13.8.5H9.35q-1.3 0-4.8-.3L2.25 0 6.8-34.5l12.65.05zM12.1-2.25q7.55 0 12.1-3.85t5.5-10.95q.2-1.35.2-2.8 0-5.35-2.9-8.43-2.9-3.07-8.25-3.37H9.3L5.4-2.5l1.8.1q4.8.15 4.9.15zM37 0l3.3-25.05h2.9L39.9 0H37zm5.2-28.25q-.8 0-1.35-.55t-.55-1.35q0-1 .65-1.68.65-.67 1.55-.67.85 0 1.4.55.55.55.55 1.4 0 .95-.68 1.62-.67.68-1.57.68zM54.75.6q-2.7 0-4.8-1.05-2.1-1.05-3.9-2.9l1.8-1.9q1.6 1.5 3.27 2.32 1.68.83 3.78.83 2.9 0 4.65-1.53Q61.3-5.15 61.3-7.7q0-1.1-.6-1.83-.6-.72-1.53-1.2-.92-.47-3.37-1.62-2.25-1-3.53-1.73-1.27-.72-2.02-1.77t-.75-2.55q0-.6.05-.9.35-2.9 2.57-4.63 2.23-1.72 5.58-1.72 1.8 0 3.47.52 1.68.53 2.78 1.48l-1.4 2.05q-1.9-1.35-4.8-1.35-2.5 0-3.9 1.1t-1.4 3.05q0 1 .6 1.67.6.68 1.42 1.1.83.43 3.08 1.48 3.55 1.55 5.12 2.92 1.58 1.38 1.58 3.73 0 .7-.05 1.05-.45 3.4-3.03 5.42Q58.6.6 54.75.6zM78.74.35q-4.7 0-7.32-2.7-2.63-2.7-2.63-7.45 0-1.25.15-2.5.5-4 2.35-7.03 1.85-3.02 4.7-4.67t6.3-1.65q2 0 3.58.72 1.57.73 3.22 2.38l-2.1 1.7q-.95-1.15-2.05-1.63-1.1-.47-2.75-.47-4.1 0-6.92 3.02-2.83 3.03-3.48 8.08-.15 1.05-.15 2.05 0 3.6 1.9 5.52 1.9 1.93 5.55 1.93 3.5 0 8-2.4l1.15 2.2q-2.15 1.4-4.65 2.15-2.5.75-4.85.75zm24.6.15q-3.15 0-5.5-1.35t-3.62-3.82q-1.28-2.48-1.28-5.68 0-1.05.15-2.25.45-3.75 2.35-6.68 1.9-2.92 4.78-4.57 2.87-1.65 6.27-1.65 3.1 0 5.45 1.4t3.65 3.87q1.3 2.48 1.3 5.73 0 1-.15 2.15-.5 3.75-2.37 6.67-1.88 2.93-4.75 4.55Q106.74.5 103.34.5zm.1-2.7q4.05 0 6.93-2.9 2.87-2.9 3.52-7.55.15-1 .15-1.9 0-3.75-2.05-6t-5.55-2.25q-2.7 0-4.95 1.35t-3.7 3.72q-1.45 2.38-1.85 5.43-.15.95-.15 1.9 0 3.75 2.05 5.98 2.05 2.22 5.6 2.22zm19.75-18.6q-.25-.85-.78-1.63-.52-.77-1.22-1.17l1.8-2.15q2.3 1.6 3.1 5.4l3.95 16.5 10.4-21.1h2.95L131.09 0h-3.05l-4.85-20.8zm24.35 9.45q-.15 1.8-.15 2.15 0 2.95 1.45 5t5.35 2.05q2.15 0 3.97-.58 1.83-.57 4.13-1.82l1.1 2.2q-2.1 1.35-4.55 2.12-2.45.78-4.9.78-4.55 0-6.98-2.7-2.42-2.7-2.42-7.3 0-1.15.15-2.4.45-3.5 2.1-6.6 1.65-3.1 4.32-5.03 2.68-1.92 6.03-1.92 2.6 0 4.62 1.17 2.03 1.18 3.18 3.25 1.15 2.08 1.15 4.68 0 .45-.1 1.45-.15 1.05-.45 2.25-.05.3-.25 1.25h-17.75zm.5-2.7l14.9-.2.2-1.05q.05-.35.05-1.05 0-2.75-1.75-4.55-1.75-1.8-4.45-1.8-3 0-5.45 2.27-2.45 2.28-3.5 6.38zm34.89-11.45q1.5 0 2.95.45l-.25 2.8q-1.35-.35-2.7-.35-2.55 0-4.2 1.35-1.85 1.15-3.3 3.5L173.03 0h-2.9l2.3-17.6q.15-1 .15-1.8 0-2.55-1.4-3.95l2.15-1.9q.8.55 1.43 1.67.62 1.13.77 2.38 1.7-2.35 3.1-3.25 1.85-1.05 4.3-1.05zM202.23 0l4.5-34.2h21.3l-.4 2.8h-18.35l-1.6 11.9h13.55l-.35 2.8h-13.55l-1.85 13.9h19.35l-.35 2.8h-22.25zm30.2-17.75q.15-.9.15-1.8 0-2.5-1.35-4.05l2-1.75q1 .8 1.52 1.97.53 1.18.58 2.48 1.95-2.35 4.07-3.48 2.13-1.12 4.88-1.12 3.35 0 5.22 1.7 1.88 1.7 1.88 4.9 0 1.05-.1 1.65L248.88 0h-2.85l2.3-16.9q.1-1.1.1-1.5 0-4.4-4.5-4.4-2.5 0-4.4 1.25-1.9 1.25-4.15 3.9L232.98 0h-2.9l2.35-17.75zM264.92.5q-4.3 0-6.62-2.98-2.33-2.97-2.33-7.57 0-1.2.15-2.4.5-3.8 2.25-6.73 1.75-2.92 4.6-4.57 2.85-1.65 6.5-1.65 2.75 0 5.9.45l1.55-11.4h2.7L275.77-7.1q-.15.95-.15 1.9 0 2.4 1.2 4L275.07.35q-.9-.75-1.42-1.88-.53-1.12-.63-2.37-1.35 2.25-3.52 3.32Q267.32.5 264.92.5zm.2-2.6q2.2 0 4.1-1.15 1.9-1.15 3-3.1.9-1.25 1.15-3.15l1.8-12.8q-2.65-.35-3.82-.43-1.18-.07-2.38-.07-4 0-6.75 2.97-2.75 2.98-3.35 7.53-.15 1.05-.15 2.1 0 3.6 1.63 5.85 1.62 2.25 4.77 2.25zM282.77 0l4.8-36.3h2.9L285.67 0h-2.9zm13.3-11.35q-.15 1.8-.15 2.15 0 2.95 1.45 5t5.35 2.05q2.15 0 3.97-.58 1.83-.57 4.13-1.82l1.1 2.2q-2.1 1.35-4.55 2.12-2.45.78-4.9.78-4.55 0-6.98-2.7-2.42-2.7-2.42-7.3 0-1.15.15-2.4.45-3.5 2.1-6.6 1.65-3.1 4.32-5.03 2.68-1.92 6.03-1.92 2.6 0 4.62 1.17 2.03 1.18 3.18 3.25 1.15 2.08 1.15 4.68 0 .45-.1 1.45-.15 1.05-.45 2.25-.05.3-.25 1.25h-17.75zm.5-2.7l14.9-.2.2-1.05q.05-.35.05-1.05 0-2.75-1.75-4.55-1.75-1.8-4.45-1.8-3 0-5.45 2.27-2.45 2.28-3.5 6.38zM325.17.6q-2.7 0-4.8-1.05-2.1-1.05-3.9-2.9l1.8-1.9q1.6 1.5 3.27 2.32 1.68.83 3.77.83 2.91 0 4.66-1.53 1.75-1.52 1.75-4.07 0-1.1-.6-1.83-.6-.72-1.53-1.2-.92-.47-3.37-1.62-2.25-1-3.53-1.73-1.27-.72-2.02-1.77t-.75-2.55q0-.6.05-.9.34-2.9 2.57-4.63 2.23-1.72 5.58-1.72 1.8 0 3.47.52 1.68.53 2.78 1.48l-1.4 2.05q-1.91-1.35-4.8-1.35-2.5 0-3.9 1.1t-1.4 3.05q0 1 .6 1.67.59.68 1.42 1.1.83.43 3.08 1.48 3.55 1.55 5.12 2.92 1.58 1.38 1.58 3.73 0 .7-.05 1.05-.45 3.4-3.03 5.42Q329.02.6 325.17.6zm20.59 0q-2.7 0-4.8-1.05-2.1-1.05-3.9-2.9l1.8-1.9q1.6 1.5 3.28 2.32 1.67.83 3.77.83 2.9 0 4.65-1.53 1.75-1.52 1.75-4.07 0-1.1-.6-1.83-.6-.72-1.52-1.2-.93-.47-3.38-1.62-2.25-1-3.52-1.73-1.28-.72-2.03-1.77-.75-1.05-.75-2.55 0-.6.05-.9.35-2.9 2.58-4.63 2.22-1.72 5.57-1.72 1.8 0 3.48.52 1.67.53 2.77 1.48l-1.4 2.05q-1.9-1.35-4.8-1.35-2.5 0-3.9 1.1t-1.4 3.05q0 1 .6 1.67.6.68 1.43 1.1.82.43 3.07 1.48 3.55 1.55 5.13 2.92 1.57 1.38 1.57 3.73 0 .7-.05 1.05-.45 3.4-3.02 5.42Q349.61.6 345.76.6zm46.15-35.05q4.1.25 7.1 2.15t4.62 5.12q1.63 3.23 1.63 7.38 0 1.55-.2 2.9-.7 5.15-3.28 9.1-2.57 3.95-6.62 6.12Q391.11.5 386.26.5H381.81q-1.3 0-4.8-.3l-2.3-.2 4.55-34.5 12.65.05zm-7.35 32.2q7.55 0 12.1-3.85t5.5-10.95q.2-1.35.2-2.8 0-5.35-2.9-8.43-2.9-3.07-8.25-3.37h-9.45l-3.9 29.15 1.8.1q4.8.15 4.9.15zm27.55-9.1q-.15 1.8-.15 2.15 0 2.95 1.45 5t5.35 2.05q2.15 0 3.97-.58 1.83-.57 4.13-1.82l1.1 2.2q-2.1 1.35-4.55 2.12-2.45.78-4.9.78-4.55 0-6.98-2.7-2.42-2.7-2.42-7.3 0-1.15.15-2.4.45-3.5 2.1-6.6 1.65-3.1 4.32-5.03 2.68-1.92 6.03-1.92 2.6 0 4.62 1.17 2.03 1.18 3.18 3.25 1.15 2.08 1.15 4.68 0 .45-.1 1.45-.15 1.05-.45 2.25-.05.3-.25 1.25h-17.75zm.5-2.7l14.9-.2.2-1.05q.05-.35.05-1.05 0-2.75-1.75-4.55-1.75-1.8-4.45-1.8-3 0-5.45 2.27-2.45 2.28-3.5 6.38zM443.75.5q-4.4 0-6.75-2.98-2.35-2.97-2.35-7.57 0-1.2.15-2.4.5-3.8 2.33-6.75 1.82-2.95 4.72-4.58 2.9-1.62 6.5-1.62 2.7 0 5.85.45h2.95L454.8-7.1q-.1 1.2-.1 1.75 0 2.65 1.2 4.15l-2 1.55q-.9-.85-1.55-2.33-.65-1.47-.55-2.27-1.45 2.1-3.62 3.42Q446 .5 443.75.5zm.15-2.7q2.3 0 4.18-1.13 1.87-1.12 2.97-3.02 1-1.45 1.15-3.15l1.8-13-3-.1-2.9-.1q-4.3 0-7.05 2.92-2.75 2.93-3.35 7.53-.15 1.1-.15 2.15 0 3.45 1.6 5.68 1.6 2.22 4.75 2.22zM461.8 0l4.8-36.3h2.9L464.7 0h-2.9zm17.4.6q-2.7 0-4.8-1.05-2.1-1.05-3.9-2.9l1.8-1.9q1.6 1.5 3.27 2.32 1.68.83 3.78.83 2.9 0 4.65-1.53 1.75-1.52 1.75-4.07 0-1.1-.6-1.83-.6-.72-1.53-1.2-.92-.47-3.37-1.62-2.25-1-3.53-1.73-1.27-.72-2.02-1.77t-.75-2.55q0-.6.05-.9.35-2.9 2.57-4.63 2.23-1.72 5.58-1.72 1.8 0 3.47.52 1.68.53 2.78 1.48L487-21.6q-1.9-1.35-4.8-1.35-2.5 0-3.9 1.1t-1.4 3.05q0 1 .6 1.67.6.68 1.42 1.1.83.43 3.08 1.48 3.55 1.55 5.12 2.92 1.58 1.38 1.58 3.73 0 .7-.05 1.05-.45 3.4-3.03 5.42Q483.05.6 479.2.6zm12 2.7q1.15-1.1 1.6-2.1.3-.6.37-1.38.08-.77.1-1.52.03-.75.03-1.05.05-.7.5-1.1.45-.4 1.15-.4.8 0 1.17.55.38.55.28 1.25-.2 1.65-.45 2.7-.25 1.05-.7 2-.85 1.5-2.75 2.8l-1.3-1.75zm35.74-2.15q-2.45 0-4.82-1.1-2.38-1.1-4-3.03-1.63-1.92-1.93-4.32l2.55-.85q.55 3.05 2.95 4.8 2.4 1.75 5.35 1.75 2.45 0 4.6-1.18 2.15-1.17 3.43-3.22 1.27-2.05 1.27-4.6 0-1.85-1.07-3.18-1.08-1.32-3.58-2.67-3.65-1.95-5.55-3.15t-3.12-2.8q-1.23-1.6-1.23-3.75 0-2.65 1.45-4.7 1.45-2.05 3.78-3.17 2.32-1.13 4.92-1.13 2.9 0 4.9 1.5 2 1.5 2 3.75 0 .25-.1.85l-2.7-.35q.2-1.45-1.15-2.23-1.35-.77-3.15-.77-1.8 0-3.42.8-1.63.8-2.63 2.15-1 1.35-1 2.95 0 2.15 1.7 3.6 1.7 1.45 4.8 3.1 1 .5 2 1.1 3.2 1.8 4.63 3.72 1.42 1.93 1.42 4.43 0 .4-.1 1.4-.4 3-2.22 5.35-1.83 2.35-4.48 3.65-2.65 1.3-5.5 1.3zm21.9-37.45h2.9l-2 14.9q1.8-2.1 3.87-3.1 2.08-1 4.68-1 3.5 0 5.25 1.72 1.75 1.73 1.75 4.88 0 .45-.1 1.65L562.94 0h-2.95l2.25-16.9q.1-.9.1-1.3 0-2.15-1.1-3.33-1.1-1.17-3.35-1.17-2.35 0-4.38 1.27-2.02 1.28-4.17 3.78L546.94 0h-2.9l4.8-36.3zM580.53.5q-3.15 0-5.5-1.35-2.34-1.35-3.62-3.82-1.28-2.48-1.28-5.68 0-1.05.15-2.25.46-3.75 2.35-6.68 1.9-2.92 4.78-4.57 2.87-1.65 6.28-1.65 3.09 0 5.44 1.4 2.36 1.4 3.65 3.87 1.31 2.48 1.31 5.73 0 1-.15 2.15-.5 3.75-2.38 6.67-1.87 2.93-4.75 4.55Q583.94.5 580.53.5zm.1-2.7q4.06 0 6.93-2.9 2.88-2.9 3.53-7.55.15-1 .15-1.9 0-3.75-2.05-6-2.06-2.25-5.56-2.25-2.69 0-4.94 1.35-2.25 1.35-3.7 3.72-1.46 2.38-1.86 5.43-.14.95-.14 1.9 0 3.75 2.04 5.98 2.06 2.22 5.6 2.22zm30.75-23.2q4.4 0 6.73 2.9 2.32 2.9 2.32 7.5 0 .85-.2 2.55-.75 5.8-4.32 9.37Q612.33.5 606.83.5q-1.35 0-5.75-.65L599.28 13h-2.75l4.05-30.7q.15-1 .15-1.8 0-2.55-1.4-3.95l2.1-1.9q.75.6 1.38 1.65.62 1.05.82 2.25 2.55-3.95 7.75-3.95zm-4.7 23.2q4.6 0 7.33-2.78 2.72-2.77 3.32-7.52.15-1.2.15-2.3 0-3.55-1.55-5.73-1.55-2.17-4.5-2.17-2.85 0-5.27 1.8-2.43 1.8-3.03 4.6l-1.85 13.65q4.4.45 5.4.45zM635.93 0l18.8-35.15h.9L665.28 0h-3.05l-3.2-11.35h-13.85L639.08 0h-3.15zm22.3-14.15l-3-11.75q-.45-1.7-.7-3.85-.9 2.4-1.7 3.95l-6.1 11.65h11.5zM670.77 0l4.8-36.3h2.9L673.67 0h-2.9zm10.65 0l3.3-25.05h2.9L684.32 0h-2.9zm5.2-28.25q-.8 0-1.35-.55t-.55-1.35q0-1 .65-1.68.65-.67 1.55-.67.85 0 1.4.55.55.55.55 1.4 0 .95-.67 1.62-.68.68-1.58.68zM707.02 0l4.55-34.7h.9l17.75 27.5 1.35 2.25.35-2.5 3.5-26.8h2.9l-4.5 34.3h-1.85l-2.3-2.9-14.25-21.8-2.1-3.4-.25 3.95L709.92 0h-2.9zm45.79.5q-3.15 0-5.5-1.35t-3.62-3.82q-1.28-2.48-1.28-5.68 0-1.05.15-2.25.45-3.75 2.35-6.68 1.9-2.92 4.78-4.57 2.87-1.65 6.27-1.65 3.1 0 5.45 1.4t3.65 3.87q1.3 2.48 1.3 5.73 0 1-.15 2.15-.5 3.75-2.37 6.67-1.88 2.93-4.75 4.55Q756.21.5 752.81.5zm.1-2.7q4.05 0 6.93-2.9 2.87-2.9 3.52-7.55.15-1 .15-1.9 0-3.75-2.05-6t-5.55-2.25q-2.7 0-4.95 1.35t-3.7 3.72q-1.45 2.38-1.85 5.43-.15.95-.15 1.9 0 3.75 2.05 5.98 2.05 2.22 5.6 2.22zm19.7-18.65q-.2-.9-.75-1.73-.55-.82-1.15-1.22l1.5-2q2.45 1.9 3.1 5.45l3.05 16L787.61-25h2.75l3.8 20.65L803.41-25h2.8L795.01-.05h-2.75l-3.8-20.65-9.25 20.65h-2.8l-3.8-20.8z"
                              className="undefined-text-1"
                              data-fill-palette-color="secondary"
                              opacity="1"
                            ></path>
                          </svg>
                        </svg>
                      </svg>
                    </g>
                  </svg>
                  <svg
                    width="87.235"
                    height="112.528"
                    viewBox="0 0 87.235 112.528"
                  >
                    <svg
                      xmlns="http://www.w3.org/2000/svg"
                      width="87.235"
                      height="112.528"
                      x="0"
                      y="0"
                      className="icon-icon-0"
                      data-fill-palette-color="accent"
                      enableBackground="new 0 0 52 52"
                      version="1.1"
                      viewBox="7.007 1.5 37.986 49"
                      xmlSpace="preserve"
                    >
                      <g fill="#111" data-fill-palette-color="accent">
                        <g data-fill-palette-color="accent">
                          <path
                            fill="#fff"
                            d="M26 30.729a5.152 5.152 0 01-5.146-5.146c0-2.827 2.308-5.126 5.146-5.126s5.146 2.3 5.146 5.126a.5.5 0 01-1 0c0-2.275-1.86-4.126-4.146-4.126s-4.146 1.851-4.146 4.126A4.15 4.15 0 0026 29.729a.5.5 0 010 1z"
                            data-fill-palette-color="accent"
                          ></path>
                          <path
                            fill="#fff"
                            d="M26 40.001c-2.837 0-5.146-2.3-5.146-5.127a.5.5 0 011 0c0 2.275 1.86 4.127 4.146 4.127s4.146-1.852 4.146-4.127A4.15 4.15 0 0026 30.729a.5.5 0 010-1 5.152 5.152 0 015.146 5.145c0 2.827-2.309 5.127-5.146 5.127z"
                            data-fill-palette-color="accent"
                          ></path>
                          <path
                            fill="#fff"
                            d="M26 42.353a.5.5 0 01-.5-.5v-2.352a.5.5 0 011 0v2.352a.5.5 0 01-.5.5zM26 21.457a.5.5 0 01-.5-.5v-2.352a.5.5 0 011 0v2.352a.5.5 0 01-.5.5z"
                            data-fill-palette-color="accent"
                          ></path>
                        </g>
                   
                      </g>
                    </svg>
                  </svg>
                </svg>
              </svg>
            </svg>
            <path
              fill="#fff"
              stroke="transparent"
              d="M0 123.6C0 55.338 55.338 0 123.6 0c52.597 0 97.522 32.854 115.37 79.16h-1.846C219.363 33.825 175.231 1.72 123.6 1.72 56.287 1.72 1.72 56.288 1.72 123.6c0 67.313 54.568 121.88 121.88 121.88 51.631 0 95.764-32.105 113.524-77.44h1.846c-17.849 46.306-62.773 79.16-115.37 79.16C55.338 247.2 0 191.862 0 123.6z"
              data-fill-palette-color="tertiary"
            ></path>
          </svg>
        </svg>
      </svg>
    </svg>