<svg
      xmlns="http://www.w3.org/2000/svg"
      xmlnsSvgjs="http://svgjs.dev/svgjs"
      xmlnsXlink="http://www.w3.org/1999/xlink"
      width="1000"
      height="1000"
      viewBox="0 0 1000 1000"
    >
      <svg
        xmlns="http://www.w3.org/2000/svg"
        xmlnsXlink="http://www.w3.org/1999/xlink"
        width="1000"
        height="1000"
        data-background-color="#ffffff"
        transform="translate(-.494 -.5)"
        viewBox="0 0 280 280"
      >
        <svg
          width="279.72"
          height="279.72"
          transform="translate(.144 .14)"
          viewBox="0 0 279.72 279.72"
        >
          <svg width="279.72" height="279.72" viewBox="0 0 279.72 279.72">
            <svg width="279.72" height="279.72" viewBox="0 0 279.72 279.72">
              <g>
                <svg width="279.72" height="279.72" viewBox="0 0 279.72 279.72">
                  <svg
                    width="279.72"
                    height="279.72"
                    viewBox="0 0 279.72 279.72"
                  >
                    <svg
                      width="164.827"
                      height="164.827"
                      transform="translate(57.447 57.447)"
                      viewBox="0 0 164.827 164.827"
                    >
                      <circle
                        cx="82.413"
                        cy="82.413"
                        r="82"
                        fill="#d2d6dc"
                        data-fill-palette-color="accent"
                      ></circle>
                      <svg
                        xmlns="http://www.w3.org/2000/svg"
                        width="115.379"
                        height="115.379"
                        x="24.724"
                        y="24.724"
                        className="icon-eg-0"
                        data-fill-palette-color="quaternary"
                        version="1.1"
                        viewBox="10.7 17.1 78.5 65.7"
                        xmlSpace="preserve"
                      >
                        <path
                          fill="#fff"
                          d="M73.2 17.1H26.7l-16 16.8v10.3c0 3.5 1.6 6.6 4 8.5v30.1h70.5v-30c2.4-1.9 4-5 4-8.5V34l-16-16.9zm-1.8 4l11.9 12.8h-9.4l-7-12.8h4.5zM29.7 37.9h10.8v6.3c0 3.6-2.4 6.5-5.4 6.5s-5.4-2.9-5.4-6.5v-6.3zm14.9 0h10.8v6.3c0 3.6-2.4 6.5-5.4 6.5s-5.4-2.9-5.4-6.5v-6.3zm14.9 0h10.8v6.3c0 3.6-2.4 6.5-5.4 6.5s-5.4-2.9-5.4-6.5v-6.3zm2.9-16.8l1.1 2.1 5.9 10.7H59.2l-2.3-12.8h5.5zm-9.6 0l2.3 12.8H44.9l2.5-12.8h5.4zm-14.5 0h4.9L41 32.5l-.3 1.4H30.6l4-6.6 3.7-6.2zm-9.8 0h5.2L26 33.9h-9.3l11.8-12.8zm-2.9 16.8v6.3c0 3.6-2.4 6.5-5.4 6.5s-5.4-2.9-5.4-6.5v-6.3h10.8zm16.5 41V67.4c0-2.1 1.3-3.9 2.9-3.9h9.3c1.6 0 2.9 1.8 2.9 3.9v11.5H42.1zm39.2 0h-20V67.4c0-4.4-3.1-7.9-6.9-7.9H45c-3.8 0-6.9 3.6-6.9 7.9v11.5H18.7V54.6c.5.1 1 .1 1.5.1 3 0 5.7-1.6 7.4-4.1 1.7 2.5 4.4 4.1 7.4 4.1s5.7-1.6 7.4-4.1c1.7 2.5 4.4 4.1 7.4 4.1s5.7-1.6 7.4-4.1c1.7 2.5 4.4 4.1 7.4 4.1s5.7-1.6 7.4-4.1c1.7 2.5 4.4 4.1 7.4 4.1.5 0 1-.1 1.5-.1v24.3zm3.9-34.6c0 3.6-2.4 6.5-5.4 6.5s-5.4-2.9-5.4-6.5V38h10.8v6.3z"
                          data-fill-palette-color="quaternary"
                        ></path>
                      </svg>
                    </svg>
                    <path
                      fill="#d2d6dc"
                      d="M20.62 179.474l1.924-.584 1.239 4.082c.147.486.228.971.24 1.455a5.83 5.83 0 01-.157 1.406 5.891 5.891 0 01-.507 1.301 5.043 5.043 0 01-.824 1.131c-.32.345-.688.647-1.104.908a5.955 5.955 0 01-1.366.606 5.9 5.9 0 01-1.472.255 5.63 5.63 0 01-1.432-.138 5.35 5.35 0 01-2.469-1.278 5.575 5.575 0 01-.921-1.079 5.498 5.498 0 01-.61-1.343l-1.239-4.082 1.925-.584.256.846 6.774-2.056zm1.233 4.062l-.268-.884-6.774 2.056.269.884c.116.382.313.715.589.999.277.284.609.502.995.654.379.154.798.239 1.255.255a4.05 4.05 0 001.4-.18 4.006 4.006 0 001.254-.625c.371-.268.672-.572.901-.91.223-.337.371-.7.444-1.09a2.41 2.41 0 00-.065-1.159zm1.936 6.08l1.882-.708 1.672 4.45-1.882.707-.411-1.093-6.627 2.49.411 1.093-1.882.707-1.672-4.449 1.882-.707.408 1.084 6.626-2.49zm2.612 10.817l.584-.261c.143-.094.267-.216.37-.366.097-.147.165-.311.203-.491.044-.183.057-.37.038-.562a1.913 1.913 0 00-.157-.575 2.606 2.606 0 00-.262-.462 1.358 1.358 0 00-.337-.305.844.844 0 00-.403-.131.91.91 0 00-.463.084c-.198.088-.336.202-.415.342a1.092 1.092 0 00-.138.462c-.02.172-.014.351.018.537.031.186.054.369.067.549l.209 2.109c.027.292.01.585-.052.88a2.763 2.763 0 01-.304.837c-.151.26-.35.502-.599.724a3.474 3.474 0 01-.912.574 3.638 3.638 0 01-1.464.333 3.275 3.275 0 01-1.388-.292 3.801 3.801 0 01-1.19-.87 4.92 4.92 0 01-.917-1.403 4.923 4.923 0 01-.359-1.152 4.124 4.124 0 01-.052-1.112c.04-.359.126-.698.257-1.016a2.7 2.7 0 01.555-.849l-.307-.686 2.012-.9 1.082 2.42-.408.182a1.71 1.71 0 00-.514.342 1.246 1.246 0 00-.317.486 1.453 1.453 0 00-.068.62c.02.228.089.472.205.732.18.402.409.666.689.793.273.13.577.12.91-.028a.862.862 0 00.377-.302 1.17 1.17 0 00.159-.416c.024-.144.033-.3.025-.468-.017-.17-.031-.335-.043-.492l-.192-1.75a3.983 3.983 0 01-.003-1 3.19 3.19 0 01.28-.993c.15-.312.361-.603.633-.873a3.331 3.331 0 011.02-.678 3.254 3.254 0 011.409-.308c.457.011.884.12 1.281.328.403.205.771.497 1.104.875.326.381.608.837.845 1.369.185.414.31.818.375 1.212.059.397.07.77.034 1.119a3.004 3.004 0 01-.682 1.685l.299.667-2.012.9zm6.399 11.349l-1.082-1.99c.21-.422.334-.767.373-1.035a2.071 2.071 0 00-.027-.795 2.905 2.905 0 00-.285-.758 2.311 2.311 0 00-.794-.863 2.917 2.917 0 00-1.088-.449 3.736 3.736 0 00-1.254-.011c-.437.076-.86.225-1.271.448a4.14 4.14 0 00-1.076.828 3.433 3.433 0 00-.668 1.046c-.16.372-.236.756-.228 1.153.008.397.112.779.312 1.148.139.256.312.474.518.655.203.175.426.316.669.422.237.11.482.185.735.225.247.043.49.05.728.02l.545 2.385c-.493.099-.99.114-1.489.047a4.618 4.618 0 01-1.432-.423 5.025 5.025 0 01-1.28-.888 5.285 5.285 0 01-1.019-1.342 5.105 5.105 0 01-.619-2.773c.026-.461.117-.919.271-1.373.154-.454.363-.884.628-1.289.265-.406.583-.784.956-1.133.37-.34.79-.638 1.26-.894a5.984 5.984 0 014.311-.576 5.385 5.385 0 011.895.912 4.991 4.991 0 011.397 1.633c.288.529.464 1.008.527 1.437.066.434.025.973-.126 1.617l.781 1.437zm-2.986 9.825a5.048 5.048 0 01-.632-1.312 5.208 5.208 0 01-.092-2.786c.112-.466.281-.913.508-1.341a6.24 6.24 0 01.841-1.21 6.301 6.301 0 011.173-1.004 6.336 6.336 0 011.377-.7 6.227 6.227 0 011.439-.315 5.72 5.72 0 011.433.043c.468.078.915.211 1.342.398a5.136 5.136 0 012.168 1.836c.279.416.489.854.633 1.312.147.464.226.928.236 1.394.014.471-.033.938-.139 1.4a5.711 5.711 0 01-.508 1.342 6.084 6.084 0 01-2.008 2.222 6.06 6.06 0 01-2.821 1.007 5.73 5.73 0 01-1.434-.043 5.039 5.039 0 01-1.347-.407 4.922 4.922 0 01-1.198-.75 5.09 5.09 0 01-.971-1.086zm1.908-1.276c.237.355.529.627.878.819a2.91 2.91 0 001.124.347 3.72 3.72 0 001.248-.125 4.21 4.21 0 001.218-.571c.388-.26.717-.565.988-.917.274-.346.471-.714.593-1.105.116-.387.152-.778.108-1.172a2.4 2.4 0 00-.407-1.12 2.41 2.41 0 00-.88-.805 2.813 2.813 0 00-1.119-.339 3.558 3.558 0 00-1.253.117 4.142 4.142 0 00-1.225.562 4.04 4.04 0 00-.987.917 3.55 3.55 0 00-.587 1.114c-.12.381-.158.769-.114 1.163s.182.766.415 1.115zm12.871 5.569l1.56-1.269 2.999 3.688-1.561 1.268-.621-.764-8.923 3.434-1.897-2.332 5.239-7.965-.68-.835 1.56-1.269 3.006 3.696-1.56 1.269-.75-.922-3.661 5.477 6.096-2.483zm3.246 4.215l1.601-1.529 6.102 6.39-2.74 2.616-1.648-1.726 1.138-1.087-1.971-2.064-1.579 1.508 1.522 1.594-1.535 1.465-1.522-1.593-1.858 1.774 1.971 2.064 1.417-1.354 1.649 1.726-2.872 2.743-6.102-6.39 1.454-1.389.807.845 4.972-4.749zm6.887 6.772l1.332-1.506 4.404 3.897c.426.377.75.777.973 1.2.228.427.359.851.394 1.271.045.419.002.825-.127 1.216-.13.392-.329.74-.599 1.044a3.515 3.515 0 01-.744.657 2.536 2.536 0 01-.771.335 2.404 2.404 0 01-.809.056 4.337 4.337 0 01-.873-.162 1.9 1.9 0 01.11.871c-.033.323-.151.671-.353 1.043l-.675 1.329.685.606-1.418 1.633-2.419-2.14 1.423-2.267c.176-.26.302-.505.379-.735.087-.231.121-.449.104-.654a1.459 1.459 0 00-.209-.606 2.616 2.616 0 00-.511-.588l-.707-.625-1.595 1.802.76.673-1.332 1.506-3.446-3.049 1.333-1.506.867.768 4.691-5.302zm3.78 3.345l-1.095-.969-1.784 2.015 1.095.97c.208.184.411.327.609.43.199.113.395.182.589.209.193.017.376-.006.549-.07.173-.073.336-.196.489-.368.283-.319.388-.669.317-1.048-.072-.389-.328-.779-.769-1.169zm6.499 5.638l1.282-1.805 7.202 5.12-2.195 3.088-1.946-1.383.913-1.283-2.326-1.654-1.266 1.78 1.797 1.277-1.23 1.73-1.796-1.277-1.489 2.094 2.326 1.653 1.135-1.597 1.946 1.383-2.301 3.236-7.202-5.12 1.166-1.638.951.676 3.984-5.603zm14.082 8.879l1.016-1.735 3.637 2.13-1.016 1.735-.771-.452-4.593 7.844-2.104-1.232-.359-8.531-2.612 4.46.806.473-1.016 1.735-3.637-2.13 1.016-1.735.798.467 3.577-6.109-.78-.456 1.016-1.736 2.892 1.694.287 8.595 2.658-4.54zm4.104 2.298l.854-1.82 3.862 1.812c.46.216.874.481 1.242.795.359.318.672.671.939 1.058.258.39.467.806.627 1.248.159.441.256.898.288 1.369a5.42 5.42 0 01-.064 1.428 5.956 5.956 0 01-.464 1.42 5.952 5.952 0 01-.796 1.265 5.694 5.694 0 01-2.303 1.634 5.526 5.526 0 01-2.778.278 5.51 5.51 0 01-1.406-.446l-3.862-1.812.854-1.821.8.376 3.007-6.409zm3.843 1.803l-.836-.392-3.007 6.408.836.393c.362.17.741.247 1.137.23a2.81 2.81 0 001.151-.301 3.684 3.684 0 001.031-.762c.322-.32.59-.707.802-1.16a4.01 4.01 0 00.376-1.35 3.67 3.67 0 00-.073-1.279 2.914 2.914 0 00-.513-1.059 2.423 2.423 0 00-.904-.728zm5.737 2.589l.704-1.884 4.452 1.665-.704 1.883-1.094-.409-2.479 6.631 2.264.846c.057.021.12.027.189.017a.538.538 0 00.202-.076.8.8 0 00.173-.142.437.437 0 00.115-.163l.523-1.398 2.216.828-1.43 3.824-8.314-3.108.704-1.884 1.085.406 2.479-6.631zm8.819 3.422l.613-2.127 8.49 2.448-1.049 3.639-2.294-.661.436-1.512-2.742-.791-.605 2.098 2.118.611-.588 2.039-2.118-.61-.711 2.469 2.742.79.543-1.883 2.293.661-1.1 3.816-8.49-2.448.557-1.933 1.122.324 1.905-6.606zm14.27 5.192l.129-.627a1.318 1.318 0 00-.361-.966 1.677 1.677 0 00-.434-.359 1.91 1.91 0 00-.559-.208 2.64 2.64 0 00-.527-.057c-.161.008-.309.04-.445.095a.847.847 0 00-.342.251.901.901 0 00-.202.426c-.044.212-.032.391.035.536.067.145.165.272.295.382.128.116.277.216.446.299.17.083.331.172.485.265l1.835 1.062c.253.149.481.334.684.556.205.215.372.46.502.735.123.274.203.577.238.91.035.332.013.691-.066 1.075a3.628 3.628 0 01-.585 1.383 3.264 3.264 0 01-1.047.956 3.831 3.831 0 01-1.401.459 4.894 4.894 0 01-1.674-.075 4.93 4.93 0 01-1.146-.381 4.113 4.113 0 01-.932-.606 3.712 3.712 0 01-.675-.803 2.72 2.72 0 01-.366-.946l-.736-.151.444-2.159 2.597.534-.09.438a1.755 1.755 0 00-.024.617c.028.199.098.38.21.541.112.161.267.3.464.417.197.117.435.204.714.261.431.089.78.057 1.046-.096.265-.146.434-.398.508-.756a.861.861 0 00-.025-.482 1.161 1.161 0 00-.245-.372 2.197 2.197 0 00-.365-.293 20.02 20.02 0 01-.425-.253l-1.533-.865a3.9 3.9 0 01-.813-.582 3.208 3.208 0 01-.643-.806 3.144 3.144 0 01-.339-1.024 3.353 3.353 0 01.044-1.225c.106-.517.297-.958.573-1.323a2.872 2.872 0 011.015-.849 3.706 3.706 0 011.354-.385 5.638 5.638 0 011.605.112c.444.091.845.226 1.203.403.356.184.666.393.929.627.264.227.476.475.635.742.159.268.271.533.334.795l.716.147-.444 2.159zm8.756 1.339l.084-.634a1.356 1.356 0 00-.117-.507 1.401 1.401 0 00-.312-.431 1.653 1.653 0 00-.459-.327 1.936 1.936 0 00-.572-.168 2.597 2.597 0 00-.53-.019c-.16.02-.305.062-.437.127a.851.851 0 00-.323.275.894.894 0 00-.171.438c-.028.215-.004.392.073.532s.184.26.322.36c.136.107.292.196.466.267.175.071.342.148.502.231l1.906.928c.263.13.503.299.722.505.219.2.404.432.553.698.143.265.243.561.302.89.059.329.063.688.011 1.078a3.621 3.621 0 01-.485 1.421c-.253.417-.579.76-.976 1.028-.39.263-.845.448-1.364.557a4.9 4.9 0 01-1.676.045 4.921 4.921 0 01-1.17-.298 4.11 4.11 0 01-.973-.539 3.707 3.707 0 01-.73-.752 2.706 2.706 0 01-.432-.918l-.745-.098.289-2.185 2.628.348-.059.443a1.75 1.75 0 00.021.617c.042.197.125.372.248.525.123.153.287.28.492.382.205.102.448.172.731.21.436.058.782.001 1.036-.17.254-.164.405-.428.453-.791a.863.863 0 00-.059-.479 1.17 1.17 0 00-.271-.353 2.139 2.139 0 00-.385-.266 16.457 16.457 0 01-.442-.223l-1.59-.753a3.943 3.943 0 01-.853-.523 3.236 3.236 0 01-.699-.758 3.145 3.145 0 01-.411-.997 3.363 3.363 0 01-.043-1.225c.069-.524.228-.977.477-1.361.249-.384.566-.69.952-.919a3.698 3.698 0 011.323-.48 5.619 5.619 0 011.609-.003c.45.059.859.165 1.228.317.368.158.692.344.971.558a3.016 3.016 0 011.077 1.464l.725.096-.289 2.185zm6.224-1.154l.065-2.01 4.263.137c.508.016.993.096 1.456.24.456.15.883.35 1.281.6a5.84 5.84 0 011.068.898c.321.342.59.724.807 1.144.224.414.392.859.506 1.337.107.478.152.974.135 1.488a5.911 5.911 0 01-.231 1.476c-.144.47-.341.907-.591 1.312a5.62 5.62 0 01-.879 1.1 5.535 5.535 0 01-2.441 1.354c-.471.114-.96.162-1.468.146l-4.263-.137.064-2.01.883.028.228-7.075zm4.243.136l-.924-.029-.227 7.075.923.029c.399.013.778-.066 1.136-.237a2.8 2.8 0 00.938-.732 3.69 3.69 0 00.645-1.107 4.03 4.03 0 00.278-1.383 3.992 3.992 0 00-.189-1.388 3.703 3.703 0 00-.572-1.147 2.914 2.914 0 00-.89-.77 2.428 2.428 0 00-1.118-.311zm6.305.313l-.108-2.212 8.826-.427.183 3.783-2.384.116-.076-1.572-2.85.138.105 2.181 2.201-.107.103 2.12-2.201.107.124 2.566 2.851-.138-.095-1.958 2.384-.115.192 3.966-8.825.428-.098-2.009 1.167-.056-.333-6.868zm16.501 7.473l-.269-1.993 1.097-.148-.706-1.514-3.382.456-.28 1.647 1.157-.156.269 1.993-4.177.563-.268-1.993.825-.111 1.784-9.413 2.909-.392 4.144 8.613.795-.107.269 1.992zm-2.323-8.859l-.613 3.731 2.214-.299zm5.833-.851l-.425-1.966 4.645-1.004.425 1.965-1.141.247 1.496 6.919 2.362-.511a.362.362 0 00.168-.089.556.556 0 00.129-.173.847.847 0 00.069-.212.413.413 0 00.008-.199l-.315-1.46 2.313-.5.863 3.991-8.676 1.876-.425-1.966 1.131-.244-1.496-6.919zm14.839-1.918l-.182-.613a1.33 1.33 0 00-.774-.681 1.665 1.665 0 00-.552-.111 1.925 1.925 0 00-.591.08c-.182.054-.346.12-.492.199a1.352 1.352 0 00-.347.294.844.844 0 00-.183.382.896.896 0 00.023.47c.062.208.156.36.284.456.128.096.274.162.44.198.168.042.346.06.535.053.189-.007.373-.005.552.005l2.119.07c.293.012.582.067.865.167.282.093.545.23.79.412.238.184.451.413.639.689.188.276.338.602.45.979.152.513.198 1.011.137 1.496-.061.484-.218.93-.472 1.337a3.808 3.808 0 01-1.018 1.065 4.938 4.938 0 01-1.512.725c-.402.12-.799.188-1.189.205a4.1 4.1 0 01-1.109-.095 3.716 3.716 0 01-.974-.389 2.71 2.71 0 01-.768-.661l-.721.214-.627-2.113 2.541-.755.127.429c.064.214.154.399.271.555.119.162.266.288.44.378.175.089.377.139.606.148.229.01.48-.026.752-.107.422-.125.714-.318.877-.578.165-.254.195-.556.091-.906a.868.868 0 00-.249-.414 1.16 1.16 0 00-.392-.212 2.185 2.185 0 00-.46-.086 22.789 22.789 0 01-.494-.022l-1.759-.039a3.91 3.91 0 01-.992-.129 3.221 3.221 0 01-.948-.408 3.179 3.179 0 01-.782-.742 3.349 3.349 0 01-.539-1.101c-.15-.506-.19-.985-.119-1.437.071-.452.235-.861.493-1.227a3.717 3.717 0 011.013-.979c.42-.273.91-.493 1.468-.658.435-.129.852-.2 1.25-.213.401-.006.772.032 1.115.114a3.015 3.015 0 011.58.897l.701-.208.627 2.113zm5.935 8.042l-.113-4.389 2.367-.01-.648 4.432zm8.583-13.62l-.257-.585a1.343 1.343 0 00-.364-.373 1.414 1.414 0 00-.49-.206 1.706 1.706 0 00-.562-.042c-.198.021-.39.072-.576.154a2.575 2.575 0 00-.463.259c-.126.1-.229.211-.307.335a.855.855 0 00-.134.402.898.898 0 00.082.463c.087.198.2.337.338.417.139.08.292.127.462.142.172.021.351.016.537-.015.186-.03.369-.051.549-.064l2.11-.195c.292-.025.585-.006.88.057.291.057.57.16.835.31.259.152.499.354.72.604.221.25.411.555.569.915.215.49.323.979.323 1.466 0 .488-.1.95-.301 1.386a3.798 3.798 0 01-.877 1.184c-.382.36-.851.663-1.409.908a4.927 4.927 0 01-1.154.352 4.115 4.115 0 01-1.112.045 3.708 3.708 0 01-1.015-.264 2.703 2.703 0 01-.845-.56l-.688.303-.887-2.018 2.426-1.067.18.409c.09.205.203.377.338.517.138.146.3.253.485.32s.391.091.619.072c.228-.019.473-.086.733-.201.403-.177.669-.405.798-.683.132-.272.124-.576-.023-.911a.85.85 0 00-.3-.378 1.164 1.164 0 00-.414-.162 2.199 2.199 0 00-.468-.028 20.73 20.73 0 01-.493.04l-1.75.181c-.329.041-.663.04-1-.004a3.207 3.207 0 01-.991-.285 3.17 3.17 0 01-.869-.639 3.329 3.329 0 01-.672-1.025 3.25 3.25 0 01-.299-1.411c.014-.457.126-.884.336-1.279a3.72 3.72 0 01.882-1.098 5.591 5.591 0 011.374-.837 4.9 4.9 0 011.214-.367c.397-.056.77-.065 1.12-.026.347.032.663.112.948.238.285.126.529.278.732.454l.67-.294.887 2.018zm8.824-6.572l-.963-1.765 4.18-2.283.964 1.765-1.025.56 3.392 6.213 1.025-.56.964 1.765-4.18 2.283-.964-1.765 1.016-.555-1.358-2.487-4.394 2.4 1.358 2.487 1.025-.56.964 1.765-4.172 2.278-.964-1.765 1.016-.555-3.392-6.213-1.016.555-.964-1.765 4.171-2.278.964 1.765-1.025.56 1.105 2.023 4.394-2.399-1.105-2.024zm14.468 1.871a5.07 5.07 0 01-1.303.649 5.167 5.167 0 01-2.784.127 5.722 5.722 0 01-1.348-.491 6.205 6.205 0 01-1.22-.825 6.327 6.327 0 01-1.02-1.16 6.394 6.394 0 01-.718-1.368 6.233 6.233 0 01-.333-1.434 5.692 5.692 0 01.025-1.435 5.61 5.61 0 01.381-1.346 5.106 5.106 0 011.809-2.192 5.07 5.07 0 011.303-.649 4.98 4.98 0 011.391-.254c.471-.02.938.021 1.402.121.467.106.917.27 1.348.491.431.221.838.496 1.22.825.386.334.729.719 1.028 1.155.299.435.536.893.709 1.373.17.475.281.953.333 1.435.052.482.044.96-.025 1.434a5.053 5.053 0 01-.389 1.352 5.106 5.106 0 01-1.809 2.192zm-1.3-1.892a2.5 2.5 0 00.808-.887c.187-.35.298-.726.333-1.129a3.68 3.68 0 00-.142-1.246 4.238 4.238 0 00-.586-1.211 4.137 4.137 0 00-.929-.976 3.41 3.41 0 00-1.113-.579 2.916 2.916 0 00-1.173-.093 2.406 2.406 0 00-1.115.421c-.346.238-.61.534-.793.891-.187.35-.295.724-.325 1.122a3.57 3.57 0 00.133 1.252c.121.426.313.832.578 1.217.268.391.578.716.929.976.355.265.729.456 1.121.573.383.115.771.148 1.165.099a2.468 2.468 0 001.109-.43zm1.235-9.452l-1.277-1.553 3.961-3.258a4.482 4.482 0 011.383-.796 4.111 4.111 0 011.415-.23c.46.016.891.113 1.292.291.405.184.744.44 1.015.77.331.403.579.826.742 1.27.168.449.234.903.199 1.362-.04.463-.189.927-.446 1.392-.256.456-.646.899-1.168 1.329l-1.192.981 1.342 1.632.784-.646 1.278 1.553-3.554 2.923-1.277-1.553.894-.736-4.497-5.466zm3.545-2.916l-.776.639 1.897 2.306.776-.639c.429-.353.693-.724.794-1.113.106-.394-.001-.784-.319-1.171-.301-.366-.658-.555-1.07-.566-.407-.016-.841.166-1.302.544zm16.557-3.089l-1.44-1.404.773-.792-1.489-.757-2.382 2.443.794 1.47.815-.837 1.44 1.404-2.942 3.018-1.44-1.404.581-.596-4.395-8.512 2.049-2.102 8.571 4.229.56-.574 1.44 1.404zm-7.288-5.545l1.816 3.316 1.56-1.6zm4.068-4.265l-1.546-1.286 3.04-3.654 1.546 1.286-.747.898 5.442 4.527 1.546-1.858a.377.377 0 00.078-.173.528.528 0 00-.006-.216.824.824 0 00-.077-.21.428.428 0 00-.116-.162l-1.147-.955 1.513-1.819 3.139 2.611-5.677 6.824-1.546-1.286.741-.89-5.442-4.527zm6.034-7.376l-1.621-1.189 2.811-3.832 1.621 1.189-.691.942 5.708 4.186.691-.941 1.622 1.189-2.812 3.833-1.621-1.19.685-.933-5.708-4.187zm8.415-12.937l-1.727-1.03 2.159-3.62 1.727 1.03-.458.767 7.807 4.656-1.248 2.094-8.534.291 4.44 2.647.478-.802 1.727 1.03-2.158 3.62-1.728-1.03.474-.794-6.08-3.626-.463.777-1.727-1.03 1.717-2.879 8.596-.218-4.518-2.694zm12.956-4.837a5.106 5.106 0 01-1.876 2.134 5.146 5.146 0 01-1.269.59 5.742 5.742 0 01-1.412.253 6.212 6.212 0 01-1.47-.101 6.265 6.265 0 01-1.464-.492 6.396 6.396 0 01-1.307-.821 6.228 6.228 0 01-1.009-1.074 5.711 5.711 0 01-.699-1.253 5.624 5.624 0 01-.346-1.355 5.078 5.078 0 01.463-2.804 5.106 5.106 0 011.876-2.134 5.448 5.448 0 011.273-.599 5.742 5.742 0 011.412-.253c.484-.025.974.008 1.47.101.502.095.991.256 1.468.482a6.076 6.076 0 012.312 1.905c.287.391.52.808.699 1.253.179.444.293.899.342 1.364.058.462.049.933-.029 1.414a5.078 5.078 0 01-.434 1.39zm-2.074-.983c.183-.385.267-.776.252-1.173a2.915 2.915 0 00-.278-1.143 3.677 3.677 0 00-.749-1.007 4.25 4.25 0 00-1.115-.753 4.11 4.11 0 00-1.293-.377 3.397 3.397 0 00-1.253.059 2.93 2.93 0 00-1.061.508 2.403 2.403 0 00-.753.925c-.18.379-.259.769-.239 1.168.014.396.109.775.283 1.134.177.369.425.707.744 1.015.318.308.689.562 1.111.763.428.203.86.329 1.293.377.44.051.859.029 1.257-.068a2.806 2.806 0 001.057-.499c.316-.24.564-.549.744-.929zm-.07-19.58l-1.905-.643 1.52-4.503 1.905.643-.322.952 7.798 5.322-1.013 3.002-7.098-.626 6.014 3.84-1 2.964-9.444-.442-.36 1.068-1.906-.643 1.523-4.513 1.905.643-.37 1.097 6.191.363-6.924-4.416.87-2.579 8.171.72-5.142-3.471zM12.137 96.052l-1.55-.552a3.214 3.214 0 00-1.324.025c-.445.1-.865.281-1.261.543a4.74 4.74 0 00-1.054.993c-.314.399-.56.847-.737 1.344a5.94 5.94 0 00-.312 1.301 3.23 3.23 0 00.079 1.171c.089.355.256.674.501.955.244.281.577.497.998.646.53.189.992.224 1.386.106a2.95 2.95 0 001.092-.614c.325-.287.622-.627.891-1.02.278-.397.56-.774.845-1.133l3.357-4.281a8.371 8.371 0 011.637-1.541 7.13 7.13 0 012.048-.996 7.64 7.64 0 012.389-.292c.852.03 1.756.216 2.713.556 1.295.461 2.394 1.118 3.297 1.972a8.53 8.53 0 012.031 2.987c.461 1.127.691 2.369.689 3.727-.006 1.349-.269 2.754-.789 4.215a12.525 12.525 0 01-1.377 2.776 10.313 10.313 0 01-1.884 2.143 9.044 9.044 0 01-2.264 1.425 7.326 7.326 0 01-2.527.588l-.648 1.818-5.319-1.894 2.275-6.391 1.1.392c.53.188 1.047.279 1.553.272a3.395 3.395 0 001.443-.359c.446-.223.853-.559 1.222-1.01.369-.451.677-1.024.925-1.719.376-1.059.418-1.953.125-2.683-.294-.73-.875-1.249-1.742-1.558-.446-.159-.855-.193-1.225-.102a2.831 2.831 0 00-1.031.474 5.298 5.298 0 00-.881.84c-.275.326-.537.65-.788.97l-2.742 3.584c-.508.681-1.102 1.3-1.782 1.856a8.001 8.001 0 01-2.262 1.329 7.622 7.622 0 01-2.693.507c-.97.021-2.001-.162-3.092-.551-1.275-.454-2.327-1.094-3.154-1.92a7.695 7.695 0 01-1.814-2.867c-.381-1.091-.539-2.283-.474-3.575.065-1.292.344-2.63.836-4.015.391-1.097.876-2.067 1.457-2.909a11.286 11.286 0 011.912-2.133 8.376 8.376 0 012.119-1.348c.732-.321 1.44-.512 2.122-.57l.63-1.771 5.329 1.898zm14.22-33.67l-4.246-2.912 6.892-10.051 4.246 2.912-1.7 2.479 14.943 10.247 1.7-2.479 4.238 2.906-6.892 10.051-4.238-2.906 1.677-2.446-5.989-4.107-7.248 10.571 5.988 4.106 1.695-2.471 4.238 2.907-6.881 10.034-4.238-2.906 1.666-2.429-14.943-10.247-1.666 2.429-4.246-2.912 6.881-10.034 4.246 2.912-1.694 2.471 4.866 3.337 7.249-10.571-4.867-3.337zm41.325-8.571a12.745 12.745 0 01-3.224 1.866 13.376 13.376 0 01-3.502.871 13.795 13.795 0 01-3.599-.088 14.356 14.356 0 01-3.516-1.019 15.887 15.887 0 01-3.243-1.919 15.491 15.491 0 01-2.808-2.778 15.547 15.547 0 01-2.042-3.382 15.857 15.857 0 01-1.111-3.611 14.353 14.353 0 01-.166-3.657c.102-1.217.355-2.39.759-3.519a12.9 12.9 0 011.668-3.2 12.732 12.732 0 012.57-2.696 12.927 12.927 0 013.239-1.878 12.88 12.88 0 013.503-.871 13.437 13.437 0 013.598.088c1.207.187 2.382.525 3.524 1.013a15.568 15.568 0 013.258 1.92c1.03.783 1.966 1.71 2.808 2.779a15.499 15.499 0 012.036 3.374c.523 1.19.891 2.396 1.103 3.617.206 1.225.258 2.446.157 3.663a13.401 13.401 0 01-.759 3.519 13.358 13.358 0 01-1.668 3.2 12.927 12.927 0 01-2.585 2.708zm-3.644-4.628c.856-.674 1.496-1.475 1.92-2.404a7.254 7.254 0 00.646-2.938c.012-1.036-.171-2.084-.551-3.147a10.77 10.77 0 00-1.69-3 10.724 10.724 0 00-2.54-2.356c-.954-.619-1.937-1.043-2.952-1.269a7.252 7.252 0 00-3.008-.062c-.997.19-1.918.618-2.764 1.284-.84.662-1.47 1.455-1.888 2.379a7.242 7.242 0 00-.646 2.939c-.013 1.035.171 2.089.549 3.161.37 1.071.929 2.082 1.679 3.034a10.212 10.212 0 002.543 2.328c.949.614 1.928 1.037 2.938 1.268a7.252 7.252 0 003.008.061 6.32 6.32 0 002.756-1.278zm10.583-28.412l-2.038-4.729 12.05-5.193c1.343-.579 2.667-.902 3.972-.971 1.305-.068 2.519.08 3.641.444a8.406 8.406 0 012.964 1.642 7.016 7.016 0 011.944 2.613c.523 1.212.833 2.428.931 3.647a7.986 7.986 0 01-.489 3.484c-.424 1.104-1.116 2.132-2.077 3.084-.961.953-2.234 1.77-3.82 2.454l-3.628 1.563 2.142 4.971 2.388-1.028 2.034 4.719-10.81 4.658-2.034-4.719 2.705-1.166-7.171-16.639zm10.781-4.646l-2.359 1.016 3.018 7.005 2.36-1.017c1.306-.563 2.226-1.284 2.761-2.163.527-.883.533-1.922.018-3.115-.48-1.113-1.215-1.828-2.207-2.146-.995-.323-2.192-.183-3.591.42zm39.71 13.644l-.749-5.084 2.793-.412-1.852-3.854-8.64 1.274-.661 4.224 2.964-.437.749 5.084-10.66 1.571-.749-5.084 2.09-.308 4.263-24.147 7.435-1.096 10.888 21.914 2.04-.301.749 5.084zm-6.215-22.593l-1.465 9.558 5.666-.835zm24.341-1.893l.489-5.126 12.112 1.156-.489 5.126-2.983-.285-1.722 18.037 6.157.588a.963.963 0 00.488-.087c.164-.079.31-.188.439-.325.136-.143.249-.296.34-.457.09-.168.144-.333.159-.495l.362-3.791 6.046.577-.992 10.393-22.617-2.159.489-5.116 2.932.28 1.722-18.036zm32.554 4.667l1.473-4.913 11.654 3.494-1.472 4.913-2.87-.86-5.209 17.374 2.87.861-1.476 4.922-11.654-3.494 1.476-4.922 2.821.846 5.208-17.375zm37.436 16.915l2.536-4.481 9.396 5.316-2.535 4.481-2.007-1.135-11.452 20.242-5.419-3.066L202.5 26.42l-6.511 11.508 2.068 1.171-2.53 4.472-9.379-5.306 2.531-4.472 2.042 1.155 8.921-15.77-2.006-1.135 2.535-4.481 7.47 4.226 1.065 21.979 6.626-11.712zm10.418 38.897a12.736 12.736 0 01-2.193-3.01 13.365 13.365 0 01-1.232-3.392 13.774 13.774 0 01-.29-3.588c.06-1.22.275-2.421.645-3.603.375-1.178.898-2.32 1.569-3.427a15.463 15.463 0 012.469-3.083 15.533 15.533 0 013.149-2.386 15.928 15.928 0 013.474-1.483 14.386 14.386 0 013.62-.547 13.757 13.757 0 013.579.386 12.92 12.92 0 013.358 1.323 12.765 12.765 0 012.95 2.274c.897.922 1.633 1.93 2.207 3.024a12.885 12.885 0 011.232 3.393 13.38 13.38 0 01.29 3.587 14.654 14.654 0 01-.638 3.611 15.52 15.52 0 01-1.569 3.441 15.57 15.57 0 01-2.469 3.084 15.504 15.504 0 01-3.142 2.378 15.562 15.562 0 01-3.481 1.475 14.65 14.65 0 01-3.627.541 13.462 13.462 0 01-6.937-1.71 12.958 12.958 0 01-2.964-2.288zm4.221-4.108c.761.781 1.625 1.333 2.592 1.658a7.25 7.25 0 002.991.334c1.03-.096 2.054-.389 3.071-.878a10.755 10.755 0 002.806-1.994 10.69 10.69 0 002.077-2.773c.517-1.013.834-2.036.954-3.069a7.26 7.26 0 00-.254-2.998c-.294-.971-.816-1.842-1.567-2.614a6.336 6.336 0 00-2.563-1.629 7.25 7.25 0 00-2.991-.334c-1.031.096-2.059.388-3.086.877a10.372 10.372 0 00-2.842 1.987 10.242 10.242 0 00-2.048 2.774c-.511 1.008-.829 2.026-.953 3.054a7.258 7.258 0 00.254 2.998c.293.971.813 1.84 1.559 2.607zm42.076 35.389l4.675-2.158 5.095 11.038-4.675 2.158-1.077-2.333-23.857 3.808-3.392-7.349 14.294-11.318-17.929 3.443-3.363-7.285 18.329-15.786-1.2-2.6 4.675-2.158 5.103 11.056-4.675 2.158-1.239-2.684-12.156 10.209 20.646-3.982 2.924 6.335-16.462 13.046 15.663-2.61zM7.844 147.198a3.352 3.352 0 116.705 0 3.352 3.352 0 01-6.705 0zm255.68 0a3.352 3.352 0 116.704 0 3.352 3.352 0 01-6.704 0z"
                      data-fill-palette-color="primary"
                    ></path>
                  </svg>
                </svg>
              </g>
            </svg>
          </svg>
        </svg>
      </svg>
    </svg>